<?xml version="1.0" encoding="UTF-8"?>
<svg width="24" height="24" viewBox="0 0 24 24" fill="none" xmlns="http://www.w3.org/2000/svg">
  <path d="M17.0938 12.6875C17.0625 9.75 19.5 8.53125 19.5938 8.46875C18.1875 6.46875 16.0312 6.1875 15.2812 6.15625C13.4688 5.96875 11.7188 7.21875 10.7812 7.21875C9.84375 7.21875 8.4375 6.1875 6.9375 6.21875C4.96875 6.25 3.15625 7.375 2.15625 9.125C0.09375 12.7188 1.5625 17.9062 3.5625 20.7812C4.53125 22.1875 5.71875 23.75 7.3125 23.6875C8.84375 23.625 9.4375 22.7188 11.2812 22.7188C13.125 22.7188 13.6562 23.6875 15.2812 23.6562C16.9375 23.625 17.9688 22.2188 18.9375 20.8125C20.0625 19.2188 20.5312 17.625 20.5625 17.5312C20.5 17.5 17.125 16.2812 17.0938 12.6875Z" fill="black"/>
  <path d="M14.4375 4.78125C15.2188 3.8125 15.75 2.46875 15.5938 1.09375C14.4375 1.15625 13.0312 1.875 12.2188 2.84375C11.5 3.6875 10.8438 5.0625 11.0312 6.375C12.3125 6.5 13.6562 5.75 14.4375 4.78125Z" fill="black"/>
</svg> 